<?xml version="1.0" encoding="UTF-8" standalone="no"?>
<!-- Generator: Adobe Illustrator 17.0.1, SVG Export Plug-In . SVG Version: 6.00 Build 0)  -->

<svg
   xmlns:dc="http://purl.org/dc/elements/1.1/"
   xmlns:cc="http://creativecommons.org/ns#"
   xmlns:rdf="http://www.w3.org/1999/02/22-rdf-syntax-ns#"
   xmlns:svg="http://www.w3.org/2000/svg"
   xmlns="http://www.w3.org/2000/svg"
   xmlns:xlink="http://www.w3.org/1999/xlink"
   xmlns:sodipodi="http://sodipodi.sourceforge.net/DTD/sodipodi-0.dtd"
   xmlns:inkscape="http://www.inkscape.org/namespaces/inkscape"
   version="1.1"
   x="0px"
   y="0px"
   width="86px"
   height="86px"
   viewBox="0 0 86 86"
   enable-background="new 0 0 86 86"
   xml:space="preserve"
   id="svg21"
   sodipodi:docname="icon.svg"
   inkscape:version="0.92.5 (2060ec1f9f, 2020-04-08)"
   inkscape:export-filename="/home/arustg/Projects/harbour-frome/icons/86x86/harbour-frome.png"
   inkscape:export-xdpi="96"
   inkscape:export-ydpi="96"><metadata
     id="metadata27"><rdf:RDF><cc:Work
         rdf:about=""><dc:format>image/svg+xml</dc:format><dc:type
           rdf:resource="http://purl.org/dc/dcmitype/StillImage" /></cc:Work></rdf:RDF></metadata><defs
     id="defs25"><linearGradient
       inkscape:collect="always"
       id="linearGradient3017"><stop
         style="stop-color:#3cc6af;stop-opacity:1;"
         offset="0"
         id="stop3013" /><stop
         style="stop-color:#3cc6af;stop-opacity:0;"
         offset="1"
         id="stop3015" /></linearGradient><linearGradient
       inkscape:collect="always"
       id="linearGradient10257"><stop
         style="stop-color:#dd55ff;stop-opacity:1"
         offset="0"
         id="stop10253" /><stop
         style="stop-color:#ab37c8;stop-opacity:0;"
         offset="1"
         id="stop10255" /></linearGradient><linearGradient
       id="linearGradient8025"
       inkscape:swatch="solid"><stop
         style="stop-color:#c294dd;stop-opacity:1;"
         offset="0"
         id="stop8023" /></linearGradient><linearGradient
       id="linearGradient984"
       inkscape:swatch="solid"><stop
         style="stop-color:#999999;stop-opacity:1;"
         offset="0"
         id="stop982" /></linearGradient><linearGradient
       y2="0.7169"
       x2="85.2831"
       y1="85.2831"
       x1="0.7169"
       gradientUnits="userSpaceOnUse"
       id="SVGID_1_"><stop
         id="stop3"
         style="stop-color:#3f84ff;stop-opacity:1"
         offset="0" /><stop
         id="stop5"
         style="stop-color:#00a6ff;stop-opacity:1"
         offset="1" /></linearGradient><linearGradient
       y2="11.5673"
       x2="11.5547"
       y1="74.445297"
       x1="74.432701"
       gradientUnits="userSpaceOnUse"
       id="SVGID_3_"
       gradientTransform="translate(38.264664,-1.2883725)"><stop
         id="stop17"
         style="stop-color:#ff7777;stop-opacity:1"
         offset="0.0054" /><stop
         id="stop19"
         style="stop-color:#ff7272;stop-opacity:1"
         offset="1" /></linearGradient><filter
       id="filter4042"
       style="color-interpolation-filters:sRGB"
       inkscape:label="Drop Shadow"
       x="-0.098588634"
       y="-0.10265742"
       width="1.3614917"
       height="1.3764105"><feFlood
         id="feFlood4044"
         flood-opacity="0.5"
         flood-color="rgb(255,255,255)"
         result="flood" /><feComposite
         id="feComposite4046"
         in2="SourceGraphic"
         in="flood"
         operator="in"
         result="composite1" /><feGaussianBlur
         id="feGaussianBlur4048"
         stdDeviation="1"
         result="blur" /><feOffset
         id="feOffset4050"
         dx="4"
         dy="4"
         result="offset" /><feComposite
         id="feComposite4052"
         in2="offset"
         in="SourceGraphic"
         operator="over"
         result="composite2" /></filter><filter
       id="filter4042-3"
       style="color-interpolation-filters:sRGB"
       inkscape:label="Drop Shadow"
       x="-0.11707317"
       y="-0.086486393"
       width="1.4292683"
       height="1.3171168"><feFlood
         id="feFlood4044-6"
         flood-opacity="0.5"
         flood-color="rgb(255,255,255)"
         result="flood" /><feComposite
         id="feComposite4046-7"
         in2="SourceGraphic"
         in="flood"
         operator="in"
         result="composite1" /><feGaussianBlur
         id="feGaussianBlur4048-5"
         stdDeviation="1"
         result="blur" /><feOffset
         id="feOffset4050-3"
         dx="4"
         dy="4"
         result="offset" /><feComposite
         id="feComposite4052-5"
         in2="offset"
         in="SourceGraphic"
         operator="over"
         result="composite2" /></filter><linearGradient
       id="linearGradient4289-3"><stop
         id="stop4291"
         offset="0"
         style="stop-color:#c00080;stop-opacity:1" /><stop
         id="stop4293"
         offset="1"
         style="stop-color:#8030c0;stop-opacity:1" /></linearGradient><linearGradient
       inkscape:collect="always"
       xlink:href="#linearGradient10257"
       id="linearGradient10259"
       x1="138.06602"
       y1="10.584194"
       x2="-101.91033"
       y2="120.65629"
       gradientUnits="userSpaceOnUse"
       gradientTransform="translate(106.60825,30.648861)" /><filter
       inkscape:collect="always"
       style="color-interpolation-filters:sRGB"
       id="filter1926"
       x="-0.14617195"
       y="-0.26705344"
       width="1.2923439"
       height="1.5341069"><feGaussianBlur
         inkscape:collect="always"
         stdDeviation="5.2010178"
         id="feGaussianBlur1928" /></filter><linearGradient
       inkscape:collect="always"
       xlink:href="#linearGradient3017"
       id="linearGradient3025"
       x1="42.324638"
       y1="5.0936666"
       x2="44.601208"
       y2="65.093666"
       gradientUnits="userSpaceOnUse"
       gradientTransform="matrix(0.98974034,0,0,0.98974034,-0.0905158,0.35613477)" /></defs><sodipodi:namedview
     pagecolor="#ffffff"
     bordercolor="#666666"
     borderopacity="1"
     objecttolerance="10"
     gridtolerance="10"
     guidetolerance="10"
     inkscape:pageopacity="0"
     inkscape:pageshadow="2"
     inkscape:window-width="1920"
     inkscape:window-height="954"
     id="namedview23"
     showgrid="true"
     inkscape:zoom="1.1"
     inkscape:cx="37.780018"
     inkscape:cy="33.32705"
     inkscape:window-x="0"
     inkscape:window-y="27"
     inkscape:window-maximized="1"
     inkscape:current-layer="svg21"
     showguides="false"
     inkscape:lockguides="false"
     inkscape:object-paths="true"
     inkscape:snap-intersection-paths="true"
     inkscape:pagecheckerboard="0"><inkscape:grid
       type="xygrid"
       id="grid867" /></sodipodi:namedview><g
     id="Layer_2"
     display="none" /><path
     inkscape:connector-curvature="0"
     style="opacity:1;mix-blend-mode:soft-light;fill:url(#linearGradient10259);fill-opacity:1;stroke:none"
     id="path8"
     d="m 190.88525,30.948861 h -41.277 c -23.583,0 -42.7,19.118 -42.7,42.7 v 41.277009 c 0,0.786 0.637,1.423 1.423,1.423 h 41.277 c 23.583,0 42.7,-19.118013 42.7,-42.700009 v -41.277 c 0,-0.786 -0.637,-1.423 -1.423,-1.423 z"
     inkscape:export-filename="/home/arustg/Документы/videoPlayer-master/harbour-videoPlayer.png"
     inkscape:export-xdpi="96.674477"
     inkscape:export-ydpi="96.674477"
     inkscape:transform-center-x="26.263017"
     inkscape:transform-center-y="32.1258" /><path
     inkscape:connector-curvature="0"
     style="mix-blend-mode:soft-light;fill:#8800aa;fill-opacity:1;stroke:none"
     id="path8-5"
     d="m -13.730949,24.485153 h -41.277002 c -23.583,0 -42.7,19.118 -42.7,42.7 v 41.276997 c 0,0.786 0.637,1.423 1.423,1.423 h 41.277 c 23.583,0 42.700002,-19.117997 42.700002,-42.699997 v -41.277 c 0,-0.786 -0.637,-1.423 -1.423,-1.423 z"
     inkscape:export-filename="/home/arustg/Документы/videoPlayer-master/harbour-videoPlayer.png"
     inkscape:export-xdpi="96.674477"
     inkscape:export-ydpi="96.674477"
     inkscape:transform-center-x="26.263017"
     inkscape:transform-center-y="32.1258" /><g
     id="g24"
     transform="matrix(0.65938648,-0.4794071,0.63432571,0.47195655,-169.93254,105.99395)"
     inkscape:transform-center-x="0.24906074"
     inkscape:transform-center-y="-0.23608327"
     style="fill:#ffffff"><linearGradient
       y2="11.5673"
       x2="11.5547"
       y1="74.445297"
       x1="74.432701"
       gradientUnits="userSpaceOnUse"
       id="linearGradient879"><stop
         id="stop875"
         style="stop-color:#1E87FF"
         offset="0.0054" /><stop
         id="stop877"
         style="stop-color:#00C8DE"
         offset="1" /></linearGradient><path
       inkscape:connector-curvature="0"
       style="fill:#ffffff;fill-opacity:1"
       id="path22"
       d="m 51.241664,9.6866275 c -1.105,0 -2.002,0.8949995 -2.002,1.9999995 0,0 0,29.435 0,30.025 0,17.687 14.299,32.025 32,32.025 0.345,0 30.047996,0 30.047996,0 1.105,0 2.002,-0.895 2.002,-2 0,0 0,-29.412 0,-30.025 0,-17.686 -14.348996,-32.0249995 -32.049996,-32.0249995 -1.472,0 -29.998,0 -29.998,0 z" /></g><path
     d="m 135.58739,-53.687239 c -22.53977,0.320051 -38.346295,17.474251 -42.266492,22.185029 -0.575089,0.691049 -0.575089,1.680267 0,2.371316 3.920197,4.710937 19.726722,21.8651388 42.266492,22.1850218 22.53977,-0.319883 38.3463,-17.4740848 42.26649,-22.1850218 0.57508,-0.691049 0.57508,-1.680267 0,-2.371316 -3.92019,-4.710778 -19.72672,-21.864978 -42.26649,-22.185029 z"
     fill="#b3dafe"
     id="path897-3"
     style="fill:#1a1a1a;stroke-width:0.16503;filter:url(#filter1926)" /><path
     d="m 187.3022,72.62931 c -22.53978,0.320051 -38.3463,17.474255 -42.2665,22.185035 -0.57509,0.69105 -0.57509,1.68026 0,2.37131 3.9202,4.710945 19.72672,21.865145 42.2665,22.185035 22.53977,-0.31989 38.3463,-17.47409 42.26648,-22.185035 0.57509,-0.69105 0.57509,-1.68026 0,-2.37131 C 225.6485,90.103565 209.84197,72.949361 187.3022,72.62931 Z"
     id="path897"
     style="fill:#f9f9f9;stroke-width:0.16503"
     inkscape:connector-curvature="0" /><path
     style="fill:#241f1c;fill-opacity:1;stroke:#ab37c8;stroke-width:0.848069px;stroke-linecap:butt;stroke-linejoin:miter;stroke-opacity:0"
     d="m -47.865432,-5.664879 v -31.559559 l 23.314244,16.206277 z"
     id="path5647" /><path
     style="fill:#0b1728;stroke:none;stroke-width:0.41598099px;stroke-linecap:butt;stroke-linejoin:miter;stroke-opacity:1"
     d="m 135.39072,64.444689 c 5.07022,0.698479 22.76973,1.163485 30.55807,-0.490347 -16.8176,2.850522 -15.28258,2.440778 -30.55807,0.490347 z"
     id="path2695"
     sodipodi:nodetypes="ccc"
     inkscape:connector-curvature="0" /><ellipse
     style="fill:#ffffff;stroke-width:0.98974"
     id="path1068"
     cx="40.415092"
     cy="41.620201"
     rx="32.1959"
     ry="35.426903" /><circle
     style="fill:#0000ff;fill-opacity:1;stroke-width:3.67281"
     id="path1096"
     cx="43.060013"
     cy="43.175488"
     r="41.644459" /><circle
     style="fill:url(#linearGradient3025);fill-opacity:1;stroke-width:3.67281"
     id="path1096-7"
     cx="42.87574"
     cy="43.198788"
     r="41.644459" /><g
     style="fill:#ffe680;fill-opacity:1"
     id="g1361"
     transform="matrix(0.06551431,0.00166863,-0.00166863,0.06551431,116.49843,-46.434767)"><g
       style="fill:#ffe680;fill-opacity:1"
       id="g1359"><path
         inkscape:connector-curvature="0"
         style="fill:#ffe680;fill-opacity:1"
         id="path1357"
         d="m 504.936,7.136 c -9.38,-9.392 -24.6,-9.392 -33.98,0 L 7.204,470.888 c -9.388,9.384 -9.388,24.592 0,33.976 4.692,4.696 10.844,7.044 16.992,7.044 6.148,0 12.3,-2.348 16.988,-7.044 L 504.936,41.112 c 9.388,-9.384 9.388,-24.592 0,-33.976 z" /></g></g><g
     style="fill:#ffe680;fill-opacity:1"
     id="g1367"
     transform="matrix(0.06551431,0.00166863,-0.00166863,0.06551431,-32.477638,30.792764)"><g
       style="fill:#ffe680;fill-opacity:1"
       id="g1365"><path
         inkscape:connector-curvature="0"
         style="fill:#ffe680;fill-opacity:1"
         id="path1363"
         d="M 114.144,0.256 C 51.208,0.256 0,51.468 0,114.404 c 0,62.936 51.208,114.144 114.144,114.144 62.94,0 114.144,-51.212 114.144,-114.148 C 228.288,51.464 177.08,0.256 114.144,0.256 Z m 0,180.228 c -36.44,0 -66.084,-29.648 -66.084,-66.084 0,-36.436 29.648,-66.084 66.084,-66.084 36.44,0 66.084,29.648 66.084,66.084 0,36.436 -29.644,66.084 -66.084,66.084 z" /></g></g><g
     style="fill:#ffe680;fill-opacity:1"
     id="g1375"
     transform="matrix(0.06551431,0.00166863,-0.00166863,0.06551431,26.931374,23.689939)" /><g
     style="fill:#ffe680;fill-opacity:1"
     id="g1377"
     transform="matrix(0.06551431,0.00166863,-0.00166863,0.06551431,26.931374,23.689939)" /><g
     style="fill:#ffe680;fill-opacity:1"
     id="g1379"
     transform="matrix(0.06551431,0.00166863,-0.00166863,0.06551431,26.931374,23.689939)" /><g
     style="fill:#ffe680;fill-opacity:1"
     id="g1381"
     transform="matrix(0.06551431,0.00166863,-0.00166863,0.06551431,26.931374,23.689939)" /><g
     style="fill:#ffe680;fill-opacity:1"
     id="g1383"
     transform="matrix(0.06551431,0.00166863,-0.00166863,0.06551431,26.931374,23.689939)" /><g
     style="fill:#ffe680;fill-opacity:1"
     id="g1385"
     transform="matrix(0.06551431,0.00166863,-0.00166863,0.06551431,26.931374,23.689939)" /><g
     style="fill:#ffe680;fill-opacity:1"
     id="g1387"
     transform="matrix(0.06551431,0.00166863,-0.00166863,0.06551431,26.931374,23.689939)" /><g
     style="fill:#ffe680;fill-opacity:1"
     id="g1389"
     transform="matrix(0.06551431,0.00166863,-0.00166863,0.06551431,26.931374,23.689939)" /><g
     style="fill:#ffe680;fill-opacity:1"
     id="g1391"
     transform="matrix(0.06551431,0.00166863,-0.00166863,0.06551431,26.931374,23.689939)" /><g
     style="fill:#ffe680;fill-opacity:1"
     id="g1393"
     transform="matrix(0.06551431,0.00166863,-0.00166863,0.06551431,26.931374,23.689939)" /><g
     style="fill:#ffe680;fill-opacity:1"
     id="g1395"
     transform="matrix(0.06551431,0.00166863,-0.00166863,0.06551431,26.931374,23.689939)" /><g
     style="fill:#ffe680;fill-opacity:1"
     id="g1397"
     transform="matrix(0.06551431,0.00166863,-0.00166863,0.06551431,26.931374,23.689939)" /><g
     style="fill:#ffe680;fill-opacity:1"
     id="g1399"
     transform="matrix(0.06551431,0.00166863,-0.00166863,0.06551431,26.931374,23.689939)" /><g
     style="fill:#ffe680;fill-opacity:1"
     id="g1401"
     transform="matrix(0.06551431,0.00166863,-0.00166863,0.06551431,26.931374,23.689939)" /><g
     style="fill:#ffe680;fill-opacity:1"
     id="g1403"
     transform="matrix(0.06551431,0.00166863,-0.00166863,0.06551431,26.931374,23.689939)" /><rect
     style="fill:#666666;fill-opacity:1;stroke-width:0.69604212"
     id="rect2364"
     width="45.000004"
     height="44.811825"
     x="20"
     y="-74" /><rect
     style="fill:#ffe680;fill-opacity:1;stroke:none;stroke-width:3.30271912"
     id="rect234"
     width="54"
     height="9.60886"
     x="-30.562004"
     y="56.578476"
     ry="3.8550196"
     transform="rotate(-48.766449)" /><circle
     style="fill:#ffe680;fill-opacity:1;stroke:none;stroke-width:1.79881656"
     id="path4744"
     cx="28.854633"
     cy="29.374912"
     r="7.5" /><circle
     style="fill:#ffe680;fill-opacity:1;stroke:none;stroke-width:1.79881656"
     id="path4744-3"
     cx="57.903061"
     cy="58.056824"
     r="7.5" /></svg>